P3
128 16
255
235 235 235 235 235 235 229 229 229 229 229 229 229 229 229 
229 229 229 229 229 229 229 229 229 229 229 229 229 229 229 
229 229 229 229 229 229 229 229 229 229 229 229 229 229 229 
229 229 229 229 229 229 229 229 229 229 229 229 229 229 229 
229 229 229 229 229 229 229 229 229 229 229 229 229 229 229 
229 229 229 229 229 229 229 229 229 229 229 229 229 229 229 
229 229 229 229 229 229 229 229 229 229 229 229 229 229 229 
229 229 229 229 229 229 229 229 229 229 229 229 229 229 229 
229 229 229 229 229 229 229 229 229 229 229 229 229 229 229 
229 229 229 229 229 229 229 229 229 229 229 229 229 229 229 
229 229 229 229 229 229 229 229 229 229 229 229 229 229 229 
229 229 229 229 229 229 229 229 229 229 229 229 229 229 229 
229 229 229 229 229 229 221 221 221 136 136 136 53 53 53 
53 53 53 53 53 53 53 53 53 53 53 53 53 53 53 
53 53 53 53 53 53 53 53 53 53 53 53 53 53 53 
53 53 53 53 53 53 53 53 53 53 53 53 53 53 53 
53 53 53 53 53 53 53 53 53 53 53 53 53 53 53 
53 53 53 53 53 53 53 53 53 53 53 53 53 53 53 
53 53 53 53 53 53 53 53 53 53 53 53 53 53 53 
53 53 53 53 53 53 53 53 53 53 53 53 53 53 53 
53 53 53 53 53 53 53 53 53 53 53 53 53 53 53 
53 53 53 53 53 53 53 53 53 53 53 53 53 53 53 
53 53 53 53 53 53 53 53 53 53 53 53 53 53 53 
53 53 53 53 53 53 53 53 53 53 53 53 53 53 53 
53 53 53 53 53 53 53 53 53 53 53 53 53 53 53 
53 53 53 53 53 53 53 53 53 217 218 217 236 236 236 
231 232 231 231 232 231 231 232 231 231 232 231 231 232 231 
231 232 231 231 232 231 231 232 231 231 232 231 231 232 231 
231 232 231 231 232 231 231 232 231 231 232 231 231 232 231 
231 232 231 231 232 231 231 232 231 231 232 231 231 232 231 
231 232 231 231 232 231 231 232 231 231 232 231 231 232 231 
231 232 231 231 232 231 231 232 231 231 232 231 231 232 231 
231 232 231 231 232 231 231 232 231 231 232 231 231 232 231 
231 232 231 231 232 231 231 232 231 231 232 231 231 232 231 
231 232 231 231 232 231 231 232 231 231 232 231 231 232 231 
231 232 231 231 232 231 231 232 231 231 232 231 231 232 231 
231 232 231 231 232 231 231 232 231 231 232 231 231 232 231 
231 232 231 231 232 231 231 232 231 231 232 231 231 232 231 
149 149 149 52 53 52 52 53 52 52 53 52 52 53 52 
52 53 52 52 53 52 52 53 52 52 53 52 52 53 52 
52 53 52 52 53 52 52 53 52 52 53 52 52 53 52 
52 53 52 52 53 52 52 53 52 52 53 52 52 53 52 
52 53 52 52 53 52 52 53 52 52 53 52 52 53 52 
52 53 52 52 53 52 52 53 52 52 53 52 52 53 52 
52 53 52 52 53 52 52 53 52 52 53 52 52 53 52 
52 53 52 52 53 52 52 53 52 52 53 52 52 53 52 
52 53 52 52 53 52 52 53 52 52 53 52 52 53 52 
52 53 52 52 53 52 52 53 52 52 53 52 52 53 52 
52 53 52 52 53 52 52 53 52 52 53 52 52 53 52 
52 53 52 52 53 52 52 53 52 52 53 52 52 53 52 
52 53 52 52 53 52 52 53 52 52 53 52 52 53 52 
141 141 141 195 196 194 208 209 207 206 207 205 206 207 205 
206 207 205 206 207 205 206 207 205 206 207 205 206 207 205 
206 207 205 206 207 205 206 207 205 206 207 205 206 207 205 
206 207 205 206 207 205 206 207 205 206 207 205 206 207 205 
206 207 205 206 207 205 206 207 205 206 207 205 206 207 205 
206 207 205 206 207 205 206 207 205 206 207 205 206 207 205 
206 207 205 206 207 205 206 207 205 206 207 205 206 207 205 
206 207 205 206 207 205 206 207 205 206 207 205 206 207 205 
206 207 205 206 207 205 206 207 205 206 207 205 206 207 205 
206 207 205 206 207 205 206 207 205 206 207 205 206 207 205 
206 207 205 206 207 205 206 207 205 206 207 205 206 207 205 
206 207 205 206 207 205 206 207 205 206 207 205 206 207 205 
206 207 205 206 207 205 206 207 205 52 52 52 52 52 52 
52 52 52 52 52 52 206 207 205 206 207 205 206 207 205 
206 207 205 206 207 205 206 207 205 206 207 205 206 207 205 
206 207 205 206 207 205 206 207 205 206 207 205 206 207 205 
206 207 205 206 207 205 206 207 205 206 207 205 206 207 205 
206 207 205 206 207 205 206 207 205 206 207 205 206 207 205 
206 207 205 206 207 205 206 207 205 206 207 205 206 207 205 
206 207 205 206 207 205 206 207 205 206 207 205 206 207 205 
206 207 205 206 207 205 206 207 205 206 207 205 206 207 205 
206 207 205 206 207 205 206 207 205 206 207 205 206 207 205 
206 207 205 206 207 205 206 207 205 206 207 205 206 207 205 
206 207 205 206 207 205 206 207 205 206 207 205 206 207 205 
206 207 205 206 207 205 206 207 205 206 207 205 206 207 205 
206 207 205 206 207 205 208 209 207 195 196 194 192 194 191 
205 206 204 203 204 202 203 204 202 203 204 202 203 204 202 
203 204 202 203 204 202 203 204 202 203 204 202 203 204 202 
203 204 202 203 204 202 203 204 202 203 204 202 203 204 202 
203 204 202 203 204 202 203 204 202 203 204 202 203 204 202 
203 204 202 203 204 202 203 204 202 203 204 202 203 204 202 
203 204 202 203 204 202 203 204 202 203 204 202 203 204 202 
203 204 202 203 204 202 203 204 202 203 204 202 203 204 202 
203 204 202 203 204 202 203 204 202 203 204 202 203 204 202 
203 204 202 203 204 202 203 204 202 203 204 202 203 204 202 
203 204 202 203 204 202 203 204 202 203 204 202 203 204 202 
203 204 202 203 204 202 203 204 202 203 204 202 203 204 202 
203 204 202 203 204 202 203 204 202 203 204 202 203 204 202 
203 204 202 51 52 51 51 52 51 51 52 51 51 52 51 
203 204 202 203 204 202 203 204 202 203 204 202 203 204 202 
203 204 202 203 204 202 203 204 202 203 204 202 203 204 202 
203 204 202 203 204 202 203 204 202 203 204 202 203 204 202 
203 204 202 203 204 202 203 204 202 203 204 202 203 204 202 
203 204 202 203 204 202 203 204 202 203 204 202 203 204 202 
203 204 202 203 204 202 203 204 202 203 204 202 203 204 202 
203 204 202 203 204 202 203 204 202 203 204 202 203 204 202 
203 204 202 203 204 202 203 204 202 203 204 202 203 204 202 
203 204 202 203 204 202 203 204 202 203 204 202 203 204 202 
203 204 202 203 204 202 203 204 202 203 204 202 203 204 202 
203 204 202 203 204 202 203 204 202 203 204 202 203 204 202 
203 204 202 203 204 202 203 204 202 203 204 202 203 204 202 
205 206 204 192 194 191 189 191 188 202 204 200 200 202 198 
200 202 198 200 202 198 200 202 198 200 202 198 200 202 198 
200 202 198 200 202 198 200 202 198 200 202 198 200 202 198 
200 202 198 200 202 198 200 202 198 200 202 198 200 202 198 
200 202 198 200 202 198 200 202 198 200 202 198 200 202 198 
200 202 198 200 202 198 200 202 198 200 202 198 200 202 198 
200 202 198 200 202 198 200 202 198 200 202 198 200 202 198 
200 202 198 200 202 198 200 202 198 200 202 198 200 202 198 
200 202 198 200 202 198 200 202 198 200 202 198 200 202 198 
200 202 198 200 202 198 200 202 198 200 202 198 200 202 198 
200 202 198 200 202 198 200 202 198 200 202 198 200 202 198 
200 202 198 200 202 198 200 202 198 200 202 198 200 202 198 
200 202 198 200 202 198 200 202 198 200 202 198 50 51 50 
50 51 50 50 51 50 50 51 50 200 202 198 200 202 198 
200 202 198 200 202 198 200 202 198 200 202 198 200 202 198 
200 202 198 200 202 198 200 202 198 200 202 198 200 202 198 
200 202 198 200 202 198 200 202 198 200 202 198 200 202 198 
200 202 198 200 202 198 200 202 198 200 202 198 200 202 198 
200 202 198 200 202 198 200 202 198 200 202 198 200 202 198 
200 202 198 200 202 198 200 202 198 200 202 198 200 202 198 
200 202 198 200 202 198 200 202 198 200 202 198 200 202 198 
200 202 198 200 202 198 200 202 198 200 202 198 200 202 198 
200 202 198 200 202 198 200 202 198 200 202 198 200 202 198 
200 202 198 200 202 198 200 202 198 200 202 198 200 202 198 
200 202 198 200 202 198 200 202 198 200 202 198 200 202 198 
200 202 198 200 202 198 200 202 198 202 204 200 189 191 188 
186 189 184 198 201 196 196 199 194 196 199 194 196 199 194 
196 199 194 196 199 194 196 199 194 196 199 194 196 199 194 
196 199 194 196 199 194 196 199 194 196 199 194 196 199 194 
196 199 194 196 199 194 196 199 194 196 199 194 196 199 194 
196 199 194 196 199 194 196 199 194 196 199 194 196 199 194 
196 199 194 196 199 194 196 199 194 196 199 194 196 199 194 
196 199 194 196 199 194 196 199 194 196 199 194 196 199 194 
196 199 194 196 199 194 196 199 194 196 199 194 196 199 194 
196 199 194 196 199 194 196 199 194 196 199 194 196 199 194 
196 199 194 196 199 194 196 199 194 196 199 194 196 199 194 
196 199 194 196 199 194 196 199 194 196 199 194 196 199 194 
196 199 194 196 199 194 196 199 194 196 199 194 196 199 194 
196 199 194 196 199 194 50 50 49 50 50 49 50 50 49 
50 50 49 196 199 194 196 199 194 196 199 194 196 199 194 
196 199 194 196 199 194 196 199 194 196 199 194 196 199 194 
196 199 194 196 199 194 196 199 194 196 199 194 196 199 194 
196 199 194 196 199 194 196 199 194 196 199 194 196 199 194 
196 199 194 196 199 194 196 199 194 196 199 194 196 199 194 
196 199 194 196 199 194 196 199 194 196 199 194 196 199 194 
196 199 194 196 199 194 196 199 194 196 199 194 196 199 194 
196 199 194 196 199 194 196 199 194 196 199 194 196 199 194 
196 199 194 196 199 194 196 199 194 196 199 194 196 199 194 
196 199 194 196 199 194 196 199 194 196 199 194 196 199 194 
196 199 194 196 199 194 196 199 194 196 199 194 196 199 194 
196 199 194 196 199 194 196 199 194 196 199 194 196 199 194 
196 199 194 198 201 196 186 189 184 182 186 180 194 198 192 
193 196 190 193 196 190 193 196 190 193 196 190 193 196 190 
193 196 190 193 196 190 193 196 190 193 196 190 193 196 190 
193 196 190 193 196 190 193 196 190 193 196 190 193 196 190 
193 196 190 193 196 190 193 196 190 193 196 190 193 196 190 
193 196 190 193 196 190 193 196 190 193 196 190 193 196 190 
193 196 190 193 196 190 193 196 190 193 196 190 193 196 190 
193 196 190 193 196 190 193 196 190 193 196 190 193 196 190 
193 196 190 193 196 190 193 196 190 193 196 190 193 196 190 
193 196 190 193 196 190 193 196 190 193 196 190 193 196 190 
193 196 190 193 196 190 193 196 190 193 196 190 193 196 190 
193 196 190 193 196 190 193 196 190 193 196 190 193 196 190 
193 196 190 193 196 190 193 196 190 193 196 190 193 196 190 
49 50 48 49 50 48 49 50 48 49 50 48 193 196 190 
193 196 190 193 196 190 193 196 190 193 196 190 193 196 190 
193 196 190 193 196 190 193 196 190 193 196 190 193 196 190 
193 196 190 193 196 190 193 196 190 193 196 190 193 196 190 
193 196 190 193 196 190 193 196 190 193 196 190 193 196 190 
193 196 190 193 196 190 193 196 190 193 196 190 193 196 190 
193 196 190 193 196 190 193 196 190 193 196 190 193 196 190 
193 196 190 193 196 190 193 196 190 193 196 190 193 196 190 
193 196 190 193 196 190 193 196 190 193 196 190 193 196 190 
193 196 190 193 196 190 193 196 190 193 196 190 193 196 190 
193 196 190 193 196 190 193 196 190 193 196 190 193 196 190 
193 196 190 193 196 190 193 196 190 193 196 190 193 196 190 
193 196 190 193 196 190 193 196 190 193 196 190 194 198 192 
182 186 180 179 183 176 191 195 188 189 193 186 189 193 186 
189 193 186 189 193 186 189 193 186 189 193 186 189 193 186 
189 193 186 189 193 186 189 193 186 189 193 186 189 193 186 
189 193 186 189 193 186 189 193 186 189 193 186 189 193 186 
189 193 186 189 193 186 189 193 186 189 193 186 189 193 186 
189 193 186 189 193 186 189 193 186 189 193 186 189 193 186 
189 193 186 189 193 186 189 193 186 189 193 186 189 193 186 
189 193 186 189 193 186 189 193 186 189 193 186 189 193 186 
189 193 186 189 193 186 189 193 186 189 193 186 189 193 186 
189 193 186 189 193 186 189 193 186 189 193 186 189 193 186 
189 193 186 189 193 186 189 193 186 189 193 186 189 193 186 
189 193 186 189 193 186 189 193 186 189 193 186 189 193 186 
189 193 186 189 193 186 189 193 186 48 49 47 48 49 47 
48 49 47 48 49 47 189 193 186 189 193 186 189 193 186 
189 193 186 189 193 186 189 193 186 189 193 186 189 193 186 
189 193 186 189 193 186 189 193 186 189 193 186 189 193 186 
189 193 186 189 193 186 189 193 186 189 193 186 189 193 186 
189 193 186 189 193 186 189 193 186 189 193 186 189 193 186 
189 193 186 189 193 186 189 193 186 189 193 186 189 193 186 
189 193 186 189 193 186 189 193 186 189 193 186 189 193 186 
189 193 186 189 193 186 189 193 186 189 193 186 189 193 186 
189 193 186 189 193 186 189 193 186 189 193 186 189 193 186 
189 193 186 189 193 186 189 193 186 189 193 186 189 193 186 
189 193 186 189 193 186 189 193 186 189 193 186 189 193 186 
189 193 186 189 193 186 189 193 186 189 193 186 189 193 186 
189 193 186 189 193 186 191 195 188 179 183 176 175 180 172 
187 192 183 185 190 182 185 190 182 185 190 182 185 190 182 
185 190 182 185 190 182 185 190 182 185 190 182 185 190 182 
185 190 182 185 190 182 185 190 182 185 190 182 185 190 182 
185 190 182 185 190 182 185 190 182 185 190 182 185 190 182 
185 190 182 185 190 182 185 190 182 185 190 182 185 190 182 
185 190 182 185 190 182 185 190 182 185 190 182 185 190 182 
185 190 182 185 190 182 185 190 182 185 190 182 185 190 182 
185 190 182 185 190 182 185 190 182 185 190 182 185 190 182 
185 190 182 185 190 182 185 190 182 185 190 182 185 190 182 
185 190 182 185 190 182 185 190 182 185 190 182 185 190 182 
185 190 182 185 190 182 185 190 182 185 190 182 185 190 182 
185 190 182 185 190 182 185 190 182 185 190 182 185 190 182 
185 190 182 47 48 46 47 48 46 47 48 46 47 48 46 
185 190 182 185 190 182 185 190 182 185 190 182 185 190 182 
185 190 182 185 190 182 185 190 182 185 190 182 185 190 182 
185 190 182 185 190 182 185 190 182 185 190 182 185 190 182 
185 190 182 185 190 182 185 190 182 185 190 182 185 190 182 
185 190 182 185 190 182 185 190 182 185 190 182 185 190 182 
185 190 182 185 190 182 185 190 182 185 190 182 185 190 182 
185 190 182 185 190 182 185 190 182 185 190 182 185 190 182 
185 190 182 185 190 182 185 190 182 185 190 182 185 190 182 
185 190 182 185 190 182 185 190 182 185 190 182 185 190 182 
185 190 182 185 190 182 185 190 182 185 190 182 185 190 182 
185 190 182 185 190 182 185 190 182 185 190 182 185 190 182 
185 190 182 185 190 182 185 190 182 185 190 182 185 190 182 
187 192 183 175 180 172 171 178 168 183 189 179 181 187 177 
181 187 177 181 187 177 181 187 177 181 187 177 181 187 177 
181 187 177 181 187 177 181 187 177 181 187 177 181 187 177 
181 187 177 181 187 177 181 187 177 181 187 177 181 187 177 
181 187 177 181 187 177 181 187 177 181 187 177 181 187 177 
181 187 177 181 187 177 181 187 177 181 187 177 181 187 177 
181 187 177 181 187 177 181 187 177 181 187 177 181 187 177 
181 187 177 181 187 177 181 187 177 181 187 177 181 187 177 
181 187 177 181 187 177 181 187 177 181 187 177 181 187 177 
181 187 177 181 187 177 181 187 177 181 187 177 181 187 177 
181 187 177 181 187 177 181 187 177 181 187 177 181 187 177 
181 187 177 181 187 177 181 187 177 181 187 177 181 187 177 
181 187 177 181 187 177 181 187 177 181 187 177 46 47 45 
46 47 45 46 47 45 46 47 45 181 187 177 181 187 177 
181 187 177 181 187 177 181 187 177 181 187 177 181 187 177 
181 187 177 181 187 177 181 187 177 181 187 177 181 187 177 
181 187 177 181 187 177 181 187 177 181 187 177 181 187 177 
181 187 177 181 187 177 181 187 177 181 187 177 181 187 177 
181 187 177 181 187 177 181 187 177 181 187 177 181 187 177 
181 187 177 181 187 177 181 187 177 181 187 177 181 187 177 
181 187 177 181 187 177 181 187 177 181 187 177 181 187 177 
181 187 177 181 187 177 181 187 177 181 187 177 181 187 177 
181 187 177 181 187 177 181 187 177 181 187 177 181 187 177 
181 187 177 181 187 177 181 187 177 181 187 177 181 187 177 
181 187 177 181 187 177 181 187 177 181 187 177 181 187 177 
181 187 177 181 187 177 181 187 177 183 189 179 171 178 168 
168 175 164 179 186 174 177 184 173 177 184 173 177 184 173 
177 184 173 177 184 173 177 184 173 177 184 173 177 184 173 
177 184 173 177 184 173 177 184 173 177 184 173 177 184 173 
177 184 173 177 184 173 177 184 173 177 184 173 177 184 173 
177 184 173 177 184 173 177 184 173 177 184 173 177 184 173 
177 184 173 177 184 173 177 184 173 177 184 173 177 184 173 
177 184 173 177 184 173 177 184 173 177 184 173 177 184 173 
177 184 173 177 184 173 177 184 173 177 184 173 177 184 173 
177 184 173 177 184 173 177 184 173 177 184 173 177 184 173 
177 184 173 177 184 173 177 184 173 177 184 173 177 184 173 
177 184 173 177 184 173 177 184 173 177 184 173 177 184 173 
177 184 173 177 184 173 177 184 173 177 184 173 177 184 173 
177 184 173 177 184 173 45 47 44 45 47 44 45 47 44 
45 47 44 177 184 173 177 184 173 177 184 173 177 184 173 
177 184 173 177 184 173 177 184 173 177 184 173 177 184 173 
177 184 173 177 184 173 177 184 173 177 184 173 177 184 173 
177 184 173 177 184 173 177 184 173 177 184 173 177 184 173 
177 184 173 177 184 173 177 184 173 177 184 173 177 184 173 
177 184 173 177 184 173 177 184 173 177 184 173 177 184 173 
177 184 173 177 184 173 177 184 173 177 184 173 177 184 173 
177 184 173 177 184 173 177 184 173 177 184 173 177 184 173 
177 184 173 177 184 173 177 184 173 177 184 173 177 184 173 
177 184 173 177 184 173 177 184 173 177 184 173 177 184 173 
177 184 173 177 184 173 177 184 173 177 184 173 177 184 173 
177 184 173 177 184 173 177 184 173 177 184 173 177 184 173 
177 184 173 179 186 174 168 175 164 164 172 160 175 183 170 
173 182 169 173 182 169 173 182 169 173 182 169 173 182 169 
173 182 169 173 182 169 173 182 169 173 182 169 173 182 169 
173 182 169 173 182 169 173 182 169 173 182 169 173 182 169 
173 182 169 173 182 169 173 182 169 173 182 169 173 182 169 
173 182 169 173 182 169 173 182 169 173 182 169 173 182 169 
173 182 169 173 182 169 173 182 169 173 182 169 173 182 169 
173 182 169 173 182 169 173 182 169 173 182 169 173 182 169 
173 182 169 173 182 169 173 182 169 173 182 169 173 182 169 
173 182 169 173 182 169 173 182 169 173 182 169 173 182 169 
173 182 169 173 182 169 173 182 169 173 182 169 173 182 169 
173 182 169 173 182 169 173 182 169 173 182 169 173 182 169 
173 182 169 173 182 169 173 182 169 173 182 169 173 182 169 
44 46 43 44 46 43 44 46 43 44 46 43 173 182 169 
173 182 169 173 182 169 173 182 169 173 182 169 173 182 169 
173 182 169 173 182 169 173 182 169 173 182 169 173 182 169 
173 182 169 173 182 169 173 182 169 173 182 169 173 182 169 
173 182 169 173 182 169 173 182 169 173 182 169 173 182 169 
173 182 169 173 182 169 173 182 169 173 182 169 173 182 169 
173 182 169 173 182 169 173 182 169 173 182 169 173 182 169 
173 182 169 173 182 169 173 182 169 173 182 169 173 182 169 
173 182 169 173 182 169 173 182 169 173 182 169 173 182 169 
173 182 169 173 182 169 173 182 169 173 182 169 173 182 169 
173 182 169 173 182 169 173 182 169 173 182 169 173 182 169 
173 182 169 173 182 169 173 182 169 173 182 169 173 182 169 
173 182 169 173 182 169 173 182 169 173 182 169 175 183 170 
164 172 160 161 169 156 171 180 166 170 179 165 170 179 165 
170 179 165 170 179 165 170 179 165 170 179 165 170 179 165 
170 179 165 170 179 165 170 179 165 170 179 165 170 179 165 
170 179 165 170 179 165 170 179 165 170 179 165 170 179 165 
170 179 165 170 179 165 170 179 165 170 179 165 170 179 165 
170 179 165 170 179 165 170 179 165 170 179 165 170 179 165 
170 179 165 170 179 165 170 179 165 170 179 165 170 179 165 
170 179 165 170 179 165 170 179 165 170 179 165 170 179 165 
170 179 165 170 179 165 170 179 165 170 179 165 170 179 165 
170 179 165 170 179 165 170 179 165 170 179 165 170 179 165 
170 179 165 170 179 165 170 179 165 170 179 165 170 179 165 
170 179 165 170 179 165 170 179 165 170 179 165 170 179 165 
170 179 165 170 179 165 170 179 165 43 45 42 43 45 42 
43 45 42 43 45 42 170 179 165 170 179 165 170 179 165 
170 179 165 170 179 165 170 179 165 170 179 165 170 179 165 
170 179 165 170 179 165 170 179 165 170 179 165 170 179 165 
170 179 165 170 179 165 170 179 165 170 179 165 170 179 165 
170 179 165 170 179 165 170 179 165 170 179 165 170 179 165 
170 179 165 170 179 165 170 179 165 170 179 165 170 179 165 
170 179 165 170 179 165 170 179 165 170 179 165 170 179 165 
170 179 165 170 179 165 170 179 165 170 179 165 170 179 165 
170 179 165 170 179 165 170 179 165 170 179 165 170 179 165 
170 179 165 170 179 165 170 179 165 170 179 165 170 179 165 
170 179 165 170 179 165 170 179 165 170 179 165 170 179 165 
170 179 165 170 179 165 170 179 165 170 179 165 170 179 165 
170 179 165 170 179 165 171 180 166 161 169 156 158 167 152 
168 178 162 167 176 161 167 176 161 167 176 161 167 176 161 
167 176 161 167 176 161 167 176 161 167 176 161 167 176 161 
167 176 161 167 176 161 167 176 161 167 176 161 167 176 161 
167 176 161 167 176 161 167 176 161 167 176 161 167 176 161 
167 176 161 167 176 161 167 176 161 167 176 161 167 176 161 
167 176 161 167 176 161 167 176 161 167 176 161 167 176 161 
167 176 161 167 176 161 167 176 161 167 176 161 167 176 161 
167 176 161 167 176 161 167 176 161 167 176 161 167 176 161 
167 176 161 167 176 161 167 176 161 167 176 161 167 176 161 
167 176 161 167 176 161 167 176 161 167 176 161 167 176 161 
167 176 161 167 176 161 167 176 161 167 176 161 167 176 161 
167 176 161 167 176 161 167 176 161 167 176 161 167 176 161 
167 176 161 42 45 41 42 45 41 42 45 41 42 45 41 
167 176 161 167 176 161 167 176 161 167 176 161 167 176 161 
167 176 161 167 176 161 167 176 161 167 176 161 167 176 161 
167 176 161 167 176 161 167 176 161 167 176 161 167 176 161 
167 176 161 167 176 161 167 176 161 167 176 161 167 176 161 
167 176 161 167 176 161 167 176 161 167 176 161 167 176 161 
167 176 161 167 176 161 167 176 161 167 176 161 167 176 161 
167 176 161 167 176 161 167 176 161 167 176 161 167 176 161 
167 176 161 167 176 161 167 176 161 167 176 161 167 176 161 
167 176 161 167 176 161 167 176 161 167 176 161 167 176 161 
167 176 161 167 176 161 167 176 161 167 176 161 167 176 161 
167 176 161 167 176 161 167 176 161 167 176 161 167 176 161 
167 176 161 167 176 161 167 176 161 167 176 161 167 176 161 
168 178 162 158 167 152 111 118 107 41 44 40 41 44 40 
41 44 40 41 44 40 41 44 40 41 44 40 41 44 40 
41 44 40 41 44 40 41 44 40 41 44 40 41 44 40 
41 44 40 41 44 40 41 44 40 41 44 40 41 44 40 
41 44 40 41 44 40 41 44 40 41 44 40 41 44 40 
41 44 40 41 44 40 41 44 40 41 44 40 41 44 40 
41 44 40 41 44 40 41 44 40 41 44 40 41 44 40 
41 44 40 41 44 40 41 44 40 41 44 40 41 44 40 
41 44 40 41 44 40 41 44 40 41 44 40 41 44 40 
41 44 40 41 44 40 41 44 40 41 44 40 41 44 40 
41 44 40 41 44 40 41 44 40 41 44 40 41 44 40 
41 44 40 41 44 40 41 44 40 41 44 40 41 44 40 
41 44 40 41 44 40 41 44 40 41 44 40 41 44 40 
41 44 40 41 44 40 117 124 113 182 193 175 182 193 175 
182 193 175 182 193 175 182 193 175 182 193 175 182 193 175 
182 193 175 182 193 175 182 193 175 182 193 175 182 193 175 
182 193 175 182 193 175 182 193 175 182 193 175 182 193 175 
182 193 175 182 193 175 182 193 175 182 193 175 182 193 175 
182 193 175 182 193 175 182 193 175 182 193 175 182 193 175 
182 193 175 182 193 175 182 193 175 182 193 175 182 193 175 
182 193 175 182 193 175 182 193 175 182 193 175 182 193 175 
182 193 175 182 193 175 182 193 175 182 193 175 182 193 175 
182 193 175 182 193 175 182 193 175 182 193 175 182 193 175 
182 193 175 182 193 175 182 193 175 182 193 175 182 193 175 
182 193 175 182 193 175 182 193 175 182 193 175 182 193 175 
182 193 175 182 193 175 182 193 175 186 197 179 171 182 164 
41 43 39 41 43 39 41 43 39 41 43 39 41 43 39 
41 43 39 41 43 39 41 43 39 41 43 39 41 43 39 
41 43 39 41 43 39 41 43 39 41 43 39 41 43 39 
41 43 39 41 43 39 41 43 39 41 43 39 41 43 39 
41 43 39 41 43 39 41 43 39 41 43 39 41 43 39 
41 43 39 41 43 39 41 43 39 41 43 39 41 43 39 
41 43 39 41 43 39 41 43 39 41 43 39 41 43 39 
41 43 39 41 43 39 41 43 39 41 43 39 41 43 39 
41 43 39 41 43 39 41 43 39 41 43 39 41 43 39 
41 43 39 41 43 39 41 43 39 41 43 39 41 43 39 
41 43 39 41 43 39 41 43 39 41 43 39 41 43 39 
41 43 39 41 43 39 41 43 39 41 43 39 41 43 39 
41 43 39 41 43 39 41 43 39 41 43 39 105 112 100 
170 181 163 176 188 169 176 188 169 176 188 169 176 188 169 
176 188 169 176 188 169 176 188 169 176 188 169 176 188 169 
176 188 169 176 188 169 176 188 169 176 188 169 176 188 169 
176 188 169 176 188 169 176 188 169 176 188 169 176 188 169 
176 188 169 176 188 169 176 188 169 176 188 169 176 188 169 
176 188 169 176 188 169 176 188 169 176 188 169 176 188 169 
176 188 169 176 188 169 176 188 169 176 188 169 176 188 169 
176 188 169 176 188 169 176 188 169 176 188 169 176 188 169 
176 188 169 176 188 169 176 188 169 176 188 169 176 188 169 
176 188 169 176 188 169 176 188 169 176 188 169 176 188 169 
176 188 169 176 188 169 176 188 169 176 188 169 176 188 169 
176 188 169 176 188 169 176 188 169 176 188 169 176 188 169 
176 188 169 181 193 173 181 193 173 